<?xml version="1.0" encoding="UTF-8" standalone="no"?>
<svg
   xmlns:dc="http://purl.org/dc/elements/1.1/"
   xmlns:cc="http://creativecommons.org/ns#"
   xmlns:rdf="http://www.w3.org/1999/02/22-rdf-syntax-ns#"
   xmlns:svg="http://www.w3.org/2000/svg"
   xmlns="http://www.w3.org/2000/svg"
   xmlns:sodipodi="http://sodipodi.sourceforge.net/DTD/sodipodi-0.dtd"
   xmlns:inkscape="http://www.inkscape.org/namespaces/inkscape"
   width="400"
   height="560"
   viewBox="0 0 400 560"
   version="1.1"
   id="svg4"
   sodipodi:docname="2fa.svg"
   inkscape:version="1.0.2 (e86c870879, 2021-01-15)">
  <metadata
     id="metadata10">
    <rdf:RDF>
      <cc:Work
         rdf:about="">
        <dc:format>image/svg+xml</dc:format>
        <dc:type
           rdf:resource="http://purl.org/dc/dcmitype/StillImage" />
      </cc:Work>
    </rdf:RDF>
  </metadata>
  <defs
     id="defs8" />
  <sodipodi:namedview
     pagecolor="#ffffff"
     bordercolor="#666666"
     borderopacity="1"
     objecttolerance="10"
     gridtolerance="10"
     guidetolerance="10"
     inkscape:pageopacity="0"
     inkscape:pageshadow="2"
     inkscape:window-width="1366"
     inkscape:window-height="768"
     id="namedview6"
     showgrid="false"
     inkscape:zoom="1.0303571"
     inkscape:cx="11.230503"
     inkscape:cy="280"
     inkscape:window-x="0"
     inkscape:window-y="0"
     inkscape:window-maximized="0"
     inkscape:current-layer="svg4" />
  <path
     d="M 295.986,384.788 V 29.598 C 295.986,13.258 282.724,0 266.388,0 H 29.598 C 13.258,0 0,13.262 0,29.598 v 355.19 c 0,16.34 13.262,29.598 29.598,29.598 h 236.98 c 16.25,-0.098 29.41,-13.328 29.41,-29.598 z m -157.86,0 h 19.734 c 5.445,0 9.867,-4.422 9.867,-9.867 0,-5.446 -4.422,-9.867 -9.867,-9.867 h -19.734 c -5.445,0 -9.867,4.421 -9.867,9.867 0,5.445 4.422,9.867 9.867,9.867 z m 138.13,-49.332 H 19.736 V 29.596 c 0,-5.445 4.422,-9.867 9.867,-9.867 h 236.79 c 5.446,0 9.867,4.422 9.867,9.867 z"
     fill-rule="evenodd"
     id="path2"
     sodipodi:nodetypes="csssssscccsssssssccssscc" />
</svg>
