<svg height='300px' width='300px'  fill="#000000" xmlns="http://www.w3.org/2000/svg" data-name="Layer 2" viewBox="0 0 255 255" x="0px" y="0px"><title>database</title><path d="M249.42,54.37c0-31.53-62.82-48.55-121.92-48.55S5.58,22.84,5.58,54.37V200.63c0,31.53,62.82,48.55,121.92,48.55s121.92-17,121.92-48.55c0-.08,0-.16,0-.24s0-.15,0-.23V57.26a7,7,0,0,0-.08-1C249.39,55.62,249.42,55,249.42,54.37Zm-14,97.95c0,7.59-11.13,16.32-29,22.8-21,7.58-49,11.75-78.88,11.75a277,277,0,0,1-57.17-5.65c-35.06-7.54-50.75-19.95-50.75-28.9V127.47c10.54,8,26.77,14.53,47.81,19.05a291.5,291.5,0,0,0,60.11,6c42.11,0,86.1-8.65,107.92-25Zm0-48.39c0,7.59-11.13,16.33-29,22.8-21,7.58-49,11.76-78.88,11.76a277,277,0,0,1-57.17-5.66c-35.06-7.53-50.75-19.94-50.75-28.9v-26c21.82,16.37,65.81,25,107.92,25s86.1-8.64,107.92-25ZM48.62,31.58c21-7.58,49-11.76,78.88-11.76,66.86,0,107.92,20.13,107.92,34.55,0,7.59-11.13,16.33-29,22.8-21,7.58-49,11.75-78.88,11.75C60.64,88.92,19.58,68.8,19.58,54.37,19.58,46.79,30.71,38.05,48.62,31.58ZM206.38,223.42c-21,7.58-49,11.76-78.88,11.76-66.86,0-107.92-20.13-107.92-34.55V175.85c10.54,8,26.77,14.53,47.81,19.06a291.52,291.52,0,0,0,60.11,6c42.11,0,86.1-8.64,107.92-25v24.31c0,.08,0,.16,0,.23s0,.16,0,.24C235.42,208.21,224.29,217,206.38,223.42Z"></path></svg>