<svg height="300" width="300" data-name="Layer 2" viewBox="0 0 255 255" xmlns="http://www.w3.org/2000/svg"><path d="M249.4 54.4c0-31.6-62.8-48.6-121.9-48.6s-122 17-122 48.6v146.2c0 31.6 62.9 48.6 122 48.6s122-17 122-48.6v-.2V57.2a7 7 0 00-.2-1l.1-1.8zm-14 98c0 7.5-11.1 16.2-29 22.7-21 7.6-49 11.8-78.9 11.8a277 277 0 01-57.1-5.7c-35-7.5-50.8-20-50.8-28.9v-24.8c10.6 8 26.8 14.5 47.8 19a291.5 291.5 0 0060.1 6c42.1 0 86.1-8.6 108-25zm0-48.5c0 7.6-11.1 16.4-29 22.8-21 7.6-49 11.8-78.9 11.8a277 277 0 01-57.1-5.7c-35-7.5-50.8-20-50.8-28.9V78c21.8 16.4 65.8 25 108 25s86-8.6 107.9-25zM48.6 31.6c21-7.6 49-11.8 78.9-11.8 66.9 0 108 20.1 108 34.6 0 7.6-11.2 16.3-29 22.8-21 7.5-49 11.7-79 11.7-66.9 0-108-20.1-108-34.5 0-7.6 11.2-16.4 29.1-22.8zm157.8 191.8c-21 7.6-49 11.8-78.9 11.8-66.9 0-108-20.2-108-34.6v-24.8c10.6 8 26.8 14.6 47.9 19.1a291.5 291.5 0 0060.1 6c42.1 0 86.1-8.6 108-25v24.8c0 7.5-11.2 16.3-29.1 22.7z" fill="gray"/></svg>