<svg height='300px' width='300px'  fill="#000000" xmlns:dc="http://purl.org/dc/elements/1.1/" xmlns:cc="http://creativecommons.org/ns#" xmlns:rdf="http://www.w3.org/1999/02/22-rdf-syntax-ns#" xmlns:svg="http://www.w3.org/2000/svg" xmlns="http://www.w3.org/2000/svg" xmlns:sodipodi="http://sodipodi.sourceforge.net/DTD/sodipodi-0.dtd" xmlns:inkscape="http://www.inkscape.org/namespaces/inkscape" version="1.1" x="0px" y="0px" viewBox="0 0 100 100"><g transform="translate(0,-952.36218)"><path style="opacity:1;color:#000000;fill:#000000;stroke:none;stroke-width:4;stroke-linecap:round;stroke-linejoin:round;stroke-miterlimit:4;stroke-opacity:1;stroke-dasharray:none;stroke-dashoffset:0;marker:none;visibility:visible;display:inline;overflow:visible;enable-background:accumulate" d="M 68 8 C 54.745166 8 44 18.745166 44 32 C 44 34.426233 44.330463 36.792451 45 39 L 10 74 L 8 92 L 24 92 L 33 83 L 33 73 L 43 73 L 46 70 L 46 60 L 56 60 L 61 55 C 63.207549 55.669537 65.573767 56 68 56 C 81.254834 56 92 45.254834 92 32 C 92 18.745166 81.254834 8 68 8 z M 68 25 C 71.865993 25 75 28.134007 75 32 C 75 35.865993 71.865993 39 68 39 C 64.134007 39 61 35.865993 61 32 C 61 28.134007 64.134007 25 68 25 z " transform="translate(0,952.36218)"></path></g></svg>