<svg xmlns="http://www.w3.org/2000/svg" xmlns:xlink="http://www.w3.org/1999/xlink" width="1200" height="1200" viewBox="0 0 1200 1200"><rect width="100%" height="100%" fill="#FFFFFF"></rect><g transform="translate(600 600) scale(0.69 0.69) rotate(0) translate(-600 -600)" style="fill:#000000"><svg xmlns="http://www.w3.org/2000/svg" viewBox="0 0 32 16" fill="none" x="0px" y="0px"><path d="M0 3C0 1.34315 1.34315 0 3 0H29C30.6569 0 32 1.34315 32 3V11C32 11.5523 31.5523 12 31 12C30.4477 12 30 11.5523 30 11V3C30 2.44771 29.5523 2 29 2H3C2.44772 2 2 2.44772 2 3V9C2 9.55228 2.44772 10 3 10H13C13.5523 10 14 10.4477 14 11C14 11.5523 13.5523 12 13 12H3C1.34315 12 0 10.6569 0 9V3Z" fill="black"></path><path fill-rule="evenodd" clip-rule="evenodd" d="M20.8293 12C20.4175 10.8348 19.3062 10 18 10C16.3431 10 15 11.3431 15 13C15 14.6569 16.3431 16 18 16C19.3062 16 20.4175 15.1652 20.8293 14H23V15C23 15.5523 23.4477 16 24 16C24.5523 16 25 15.5523 25 15V14H27V15C27 15.5523 27.4477 16 28 16C28.5523 16 29 15.5523 29 15V13C29 12.4477 28.5523 12 28 12H20.8293ZM18 12C17.4477 12 17 12.4477 17 13C17 13.5523 17.4477 14 18 14C18.5523 14 19 13.5523 19 13C19 12.4477 18.5523 12 18 12Z" fill="black"></path><path d="M9 6C9 7.10457 8.10457 8 7 8C5.89543 8 5 7.10457 5 6C5 4.89543 5.89543 4 7 4C8.10457 4 9 4.89543 9 6Z" fill="black"></path><path d="M13 8C14.1046 8 15 7.10457 15 6C15 4.89543 14.1046 4 13 4C11.8954 4 11 4.89543 11 6C11 7.10457 11.8954 8 13 8Z" fill="black"></path><path d="M21 6C21 7.10457 20.1046 8 19 8C17.8954 8 17 7.10457 17 6C17 4.89543 17.8954 4 19 4C20.1046 4 21 4.89543 21 6Z" fill="black"></path><path d="M25 8C26.1046 8 27 7.10457 27 6C27 4.89543 26.1046 4 25 4C23.8954 4 23 4.89543 23 6C23 7.10457 23.8954 8 25 8Z" fill="black"></path></svg></g></svg>