<?xml version="1.0" encoding="UTF-8" standalone="no"?>
<svg
   xmlns:dc="http://purl.org/dc/elements/1.1/"
   xmlns:cc="http://creativecommons.org/ns#"
   xmlns:rdf="http://www.w3.org/1999/02/22-rdf-syntax-ns#"
   xmlns:svg="http://www.w3.org/2000/svg"
   xmlns="http://www.w3.org/2000/svg"
   xmlns:sodipodi="http://sodipodi.sourceforge.net/DTD/sodipodi-0.dtd"
   xmlns:inkscape="http://www.inkscape.org/namespaces/inkscape"
   width="1200"
   height="1200"
   viewBox="0 0 1200 1200"
   version="1.1"
   id="svg64"
   sodipodi:docname="placeholder.svg"
   inkscape:version="1.0.2 (e86c870879, 2021-01-15)">
  <metadata
     id="metadata70">
    <rdf:RDF>
      <cc:Work
         rdf:about="">
        <dc:format>image/svg+xml</dc:format>
        <dc:type
           rdf:resource="http://purl.org/dc/dcmitype/StillImage" />
      </cc:Work>
    </rdf:RDF>
  </metadata>
  <defs
     id="defs68" />
  <sodipodi:namedview
     pagecolor="#ffffff"
     bordercolor="#666666"
     borderopacity="1"
     objecttolerance="10"
     gridtolerance="10"
     guidetolerance="10"
     inkscape:pageopacity="0"
     inkscape:pageshadow="2"
     inkscape:window-width="1366"
     inkscape:window-height="768"
     id="namedview66"
     showgrid="false"
     inkscape:zoom="0.2286924"
     inkscape:cx="-232.30623"
     inkscape:cy="619.32855"
     inkscape:window-x="0"
     inkscape:window-y="0"
     inkscape:window-maximized="0"
     inkscape:current-layer="svg64" />
  <g
     transform="matrix(1.0037286,0,0,1.0037286,1.7733637,-1.0288225)"
     style="fill:#cccccc"
     id="g62">
    <svg
       fill="#000000"
       version="1.1"
       viewBox="0 0 256 256"
       x="0px"
       y="0px"
       id="svg60"
       width="100%"
       height="100%"
       style="fill:#cccccc">
      <path
         d="M 15.36,30.72 V 15.36 H 25.6 V 5.12 H 12.8 c -4.224,0 -7.68,3.456 -7.68,7.68 v 17.92 z"
         fill="#000000"
         id="path4"
         style="fill:#cccccc" />
      <path
         d="m 225.28,15.36 h 15.36 V 25.6 h 10.24 V 12.8 c 0,-4.224 -3.456,-7.68 -7.68,-7.68 h -17.92 z"
         fill="#000000"
         id="path6"
         style="fill:#cccccc" />
      <path
         d="M 40.96,5.12 H 56.32 V 15.36 H 40.96 Z"
         fill="#000000"
         id="path8"
         style="fill:#cccccc" />
      <path
         d="M 71.68,5.12 H 87.04 V 15.36 H 71.68 Z"
         fill="#000000"
         id="path10"
         style="fill:#cccccc" />
      <path
         d="m 102.4,5.12 h 15.36 V 15.36 H 102.4 Z"
         fill="#000000"
         id="path12"
         style="fill:#cccccc" />
      <path
         d="m 133.12,5.12 h 15.36 v 10.24 h -15.36 z"
         fill="#000000"
         id="path14"
         style="fill:#cccccc" />
      <path
         d="M 163.84,5.12 H 179.2 V 15.36 H 163.84 Z"
         fill="#000000"
         id="path16"
         style="fill:#cccccc" />
      <path
         d="m 194.56,5.12 h 15.36 v 10.24 h -15.36 z"
         fill="#000000"
         id="path18"
         style="fill:#cccccc" />
      <path
         d="m 240.64,40.96 h 10.24 v 15.36 h -10.24 z"
         fill="#000000"
         id="path20"
         style="fill:#cccccc" />
      <path
         d="m 240.64,71.68 h 10.24 v 15.36 h -10.24 z"
         fill="#000000"
         id="path22"
         style="fill:#cccccc" />
      <path
         d="m 240.64,102.4 h 10.24 v 15.36 h -10.24 z"
         fill="#000000"
         id="path24"
         style="fill:#cccccc" />
      <path
         d="m 240.64,133.12 h 10.24 v 15.36 h -10.24 z"
         fill="#000000"
         id="path26"
         style="fill:#cccccc" />
      <path
         d="m 240.64,163.84 h 10.24 v 15.36 h -10.24 z"
         fill="#000000"
         id="path28"
         style="fill:#cccccc" />
      <path
         d="m 240.64,194.56 h 10.24 v 15.36 h -10.24 z"
         fill="#000000"
         id="path30"
         style="fill:#cccccc" />
      <path
         d="m 5.12,199.68 h 10.24 v 15.36 H 5.12 Z"
         fill="#000000"
         id="path32"
         style="fill:#cccccc" />
      <path
         d="m 5.12,168.96 h 10.24 v 15.36 H 5.12 Z"
         fill="#000000"
         id="path34"
         style="fill:#cccccc" />
      <path
         d="M 5.12,138.24 H 15.36 V 153.6 H 5.12 Z"
         fill="#000000"
         id="path36"
         style="fill:#cccccc" />
      <path
         d="m 5.12,107.52 h 10.24 v 15.36 H 5.12 Z"
         fill="#000000"
         id="path38"
         style="fill:#cccccc" />
      <path
         d="M 5.12,76.8 H 15.36 V 92.16 H 5.12 Z"
         fill="#000000"
         id="path40"
         style="fill:#cccccc" />
      <path
         d="M 5.12,46.08 H 15.36 V 61.44 H 5.12 Z"
         fill="#000000"
         id="path42"
         style="fill:#cccccc" />
      <path
         d="m 240.64,225.28 v 15.36 H 230.4 v 10.24 h 12.8 c 4.224,0 7.68,-3.456 7.68,-7.68 v -17.92 z"
         fill="#000000"
         id="path44"
         style="fill:#cccccc" />
      <path
         d="M 30.72,240.64 H 15.36 V 230.4 H 5.12 v 12.8 c 0,4.224 3.456,7.68 7.68,7.68 h 17.92 z"
         fill="#000000"
         id="path46"
         style="fill:#cccccc" />
      <path
         d="m 199.68,240.64 h 15.36 v 10.24 h -15.36 z"
         fill="#000000"
         id="path48"
         style="fill:#cccccc" />
      <path
         d="m 168.96,240.64 h 15.36 v 10.24 h -15.36 z"
         fill="#000000"
         id="path50"
         style="fill:#cccccc" />
      <path
         d="m 138.24,240.64 h 15.36 v 10.24 h -15.36 z"
         fill="#000000"
         id="path52"
         style="fill:#cccccc" />
      <path
         d="m 107.52,240.64 h 15.36 v 10.24 h -15.36 z"
         fill="#000000"
         id="path54"
         style="fill:#cccccc" />
      <path
         d="m 76.8,240.64 h 15.36 v 10.24 H 76.8 Z"
         fill="#000000"
         id="path56"
         style="fill:#cccccc" />
      <path
         d="m 46.08,240.64 h 15.36 v 10.24 H 46.08 Z"
         fill="#000000"
         id="path58"
         style="fill:#cccccc" />
    </svg>
  </g>
</svg>
